<?xml version="1.0" encoding="UTF-8" standalone="no" ?>
<!DOCTYPE svg PUBLIC "-//W3C//DTD SVG 1.1//EN" "http://www.w3.org/Graphics/SVG/1.1/DTD/svg11.dtd">
<svg xmlns="http://www.w3.org/2000/svg" xmlns:xlink="http://www.w3.org/1999/xlink" version="1.1" width="640" height="480" viewBox="0 0 640 480" xml:space="preserve">
<desc>Created with Fabric.js 3.6.6</desc>
<defs>
</defs>
<g transform="matrix(17.38 0 0 17.38 320.06 240.09)" id="Layer_1"  >
<path style="stroke: none; stroke-width: 0; stroke-dasharray: none; stroke-linecap: butt; stroke-dashoffset: 0; stroke-linejoin: miter; stroke-miterlimit: 4; fill: rgb(158,158,158); fill-rule: nonzero; opacity: 1;" vector-effect="non-scaling-stroke"  transform=" translate(-12, -12)" d="M 8.5 11 c 2.48 0 4.5 -2.02 4.5 -4.5 v -2 c 0 -2.48 -2.02 -4.5 -4.5 -4.5 S 4 2.02 4 4.5 v 2 c 0 2.48 2.02 4.5 4.5 4.5 Z m -1.5 -6.5 c 0 -0.83 0.67 -1.5 1.5 -1.5 s 1.5 0.67 1.5 1.5 v 2 c 0 0.83 -0.67 1.5 -1.5 1.5 s -1.5 -0.67 -1.5 -1.5 v -2 Z M 15.5 13 c -2.48 0 -4.5 2.02 -4.5 4.5 v 2 c 0 2.48 2.02 4.5 4.5 4.5 s 4.5 -2.02 4.5 -4.5 v -2 c 0 -2.48 -2.02 -4.5 -4.5 -4.5 Z m 1.5 6.5 c 0 0.83 -0.67 1.5 -1.5 1.5 s -1.5 -0.67 -1.5 -1.5 v -2 c 0 -0.83 0.67 -1.5 1.5 -1.5 s 1.5 0.67 1.5 1.5 v 2 Z m -8 -6.5 v 11 h -3 v -6.44 l -1.88 -1.83 l 2.66 -2.72 h 2.22 Z m 7 -8.44 l -1.88 -1.83 l 2.66 -2.72 h 2.22 V 11 h -3 V 4.56 Z" stroke-linecap="round" />
</g>
</svg>